<?xml version="1.0" standalone="no"?>
<!DOCTYPE svg PUBLIC "-//W3C//DTD SVG 20010904//EN"
 "http://www.w3.org/TR/2001/REC-SVG-20010904/DTD/svg10.dtd">
<svg version="1.0" xmlns="http://www.w3.org/2000/svg"
 width="260.000000pt" height="260.000000pt" viewBox="0 0 260.000000 260.000000"
 preserveAspectRatio="xMidYMid meet">
<metadata>
Created by potrace 1.14, written by Peter Selinger 2001-2017
</metadata>
<g transform="translate(0.000000,260.000000) scale(0.100000,-0.100000)"
fill="#000000" stroke="none">
<path d="M2393 2471 c10 -12 9 -14 -5 -8 -12 4 -15 2 -11 -9 4 -11 9 -12 16
-5 16 16 17 38 1 38 -11 0 -11 -3 -1 -16z"/>
<path d="M2420 2485 c0 -6 6 -17 13 -24 10 -11 9 -12 -1 -7 -15 9 -44 -12 -36
-25 3 -5 -2 -6 -10 -3 -9 3 -16 10 -16 15 0 5 -5 9 -11 9 -5 0 -7 -4 -4 -10 3
-5 1 -10 -4 -10 -6 0 -11 -5 -11 -11 0 -5 4 -8 8 -5 4 2 14 -4 20 -15 12 -18
11 -19 -6 -10 -19 10 -32 6 -32 -11 0 -5 7 -8 16 -6 10 2 18 -4 19 -14 3 -14
-1 -16 -14 -8 -15 7 -17 4 -17 -20 0 -16 3 -27 8 -24 4 3 8 0 8 -6 0 -6 5 -8
13 -4 8 5 7 2 -2 -9 -11 -14 -17 -15 -30 -5 -14 11 -14 11 -5 -2 5 -8 9 -21 8
-27 -1 -7 -2 -18 -3 -24 0 -5 -5 -7 -11 -4 -5 3 -10 1 -10 -5 0 -7 6 -10 14
-7 8 3 17 -1 20 -9 8 -21 8 -24 -5 -24 -5 0 -8 4 -4 9 3 6 -3 9 -14 8 -20 -1
-18 -23 2 -30 7 -2 1 -2 -12 0 -21 4 -23 2 -12 -10 9 -12 9 -17 0 -23 -7 -4
-9 -3 -5 4 10 17 -13 25 -31 10 -9 -7 -14 -8 -11 -3 4 6 -3 17 -15 25 -19 11
-20 11 -10 -1 10 -12 8 -18 -10 -29 -12 -8 -26 -13 -30 -12 -5 1 -6 -2 -2 -8
3 -6 11 -8 16 -5 5 4 9 -2 9 -12 0 -15 2 -16 10 -3 5 8 10 10 10 4 0 -21 -14
-24 -39 -7 -20 13 -23 13 -14 1 10 -12 8 -18 -11 -36 -13 -11 -27 -18 -30 -15
-3 4 -6 1 -6 -6 0 -8 -6 -11 -16 -7 -8 3 -12 2 -9 -3 3 -5 1 -12 -5 -16 -5 -3
-10 0 -11 7 0 7 -5 3 -11 -9 -6 -13 -15 -23 -20 -23 -4 0 -8 -5 -8 -11 0 -5 5
-7 11 -3 7 4 10 1 7 -7 -3 -8 -10 -14 -15 -14 -6 0 -15 -4 -20 -9 -5 -5 -3 -6
5 -2 7 4 12 2 12 -5 0 -9 5 -8 18 2 10 8 7 3 -7 -10 -15 -14 -27 -19 -29 -12
-5 15 -23 14 -20 -1 2 -7 -3 -12 -10 -10 -10 2 -10 -2 -2 -17 14 -27 13 -34
-4 -28 -8 3 -16 1 -19 -6 -2 -6 -6 -4 -10 5 -4 13 -1 16 15 13 16 -4 19 -2 10
7 -6 6 -22 13 -34 15 -16 2 -19 0 -10 -6 11 -6 7 -13 -13 -30 -24 -18 -26 -23
-14 -38 10 -11 10 -14 2 -9 -7 4 -13 3 -13 -3 0 -5 6 -12 13 -15 6 -4 2 -4
-10 -2 -13 2 -21 -1 -20 -8 1 -6 -6 -10 -15 -10 -10 1 -16 -2 -13 -6 7 -12
-17 -26 -42 -24 -12 0 -22 -2 -21 -5 0 -3 0 -13 -1 -21 -1 -13 -3 -13 -10 0
-6 8 -7 18 -4 24 3 5 1 6 -6 2 -6 -4 -9 -12 -5 -17 3 -5 0 -18 -8 -27 -12 -15
-11 -16 5 -3 12 9 17 10 17 2 0 -7 5 -9 13 -5 7 4 9 3 4 -2 -5 -5 -12 -9 -15
-9 -4 0 -13 -4 -19 -8 -16 -10 -35 1 -27 15 4 7 2 8 -4 4 -9 -5 -7 -14 4 -32
9 -13 13 -24 9 -24 -4 0 -2 -7 5 -15 12 -14 7 -19 -13 -16 -5 1 -6 -9 -2 -21
5 -20 5 -21 -5 -5 -8 12 -8 22 -1 30 6 8 7 18 0 27 -8 12 -9 11 -7 -5 2 -11
-3 -20 -9 -21 -7 -1 -16 -3 -20 -4 -5 -1 -12 -2 -16 -1 -5 1 -6 -3 -2 -9 3 -5
0 -10 -7 -11 -39 -2 -59 -6 -65 -14 -5 -4 3 -4 17 0 l25 7 -22 -23 c-17 -19
-19 -28 -12 -42 8 -13 7 -22 -1 -33 -12 -13 -7 -18 13 -15 5 1 5 -3 2 -9 -4
-6 -10 -9 -13 -6 -3 3 -12 0 -21 -7 -14 -11 -14 -10 -2 6 11 14 11 17 0 17 -8
0 -7 4 5 13 16 12 16 13 -2 13 -14 0 -19 -6 -16 -19 2 -13 -1 -17 -12 -13 -9
3 -12 1 -9 -4 3 -6 1 -10 -4 -10 -6 0 -11 5 -11 10 0 6 -5 10 -11 10 -8 0 -9
-4 0 -13 6 -8 7 -17 3 -22 -4 -4 3 -3 15 3 17 9 22 9 27 -3 3 -8 0 -17 -6 -21
-7 -4 -8 -3 -4 4 4 7 1 12 -8 12 -9 0 -16 -6 -16 -12 0 -9 -4 -8 -10 2 -9 13
-14 7 -11 -12 2 -12 -6 -10 -21 5 -11 12 -16 12 -28 -1 -13 -14 -12 -15 3 -9
9 3 19 2 22 -3 4 -6 -5 -10 -19 -10 -14 0 -28 -5 -32 -12 -5 -8 -2 -9 10 -5
14 6 16 3 11 -14 -4 -12 -3 -19 2 -16 5 3 10 -3 10 -14 1 -10 -3 -19 -8 -19
-6 0 -8 4 -5 9 3 4 -4 17 -16 27 -12 11 -18 13 -14 7 4 -7 2 -13 -4 -13 -7 0
-9 -8 -5 -21 5 -15 4 -19 -4 -15 -14 9 -14 -7 -1 -20 7 -7 6 -11 -4 -11 -8 0
-13 4 -10 9 3 4 -2 8 -11 8 -9 0 -13 -4 -10 -10 3 -5 1 -10 -5 -10 -7 0 -9 9
-5 23 6 22 6 22 -10 2 -11 -14 -18 -16 -23 -9 -5 9 -11 8 -20 -2 -7 -8 -9 -14
-3 -14 14 0 8 -25 -11 -44 -17 -17 -14 -51 4 -40 5 3 7 12 4 20 -3 7 -2 16 3
18 4 3 8 0 8 -7 0 -7 2 -16 4 -22 2 -5 0 -12 -6 -13 -38 -14 -46 -24 -34 -40
11 -14 11 -15 -1 -4 -21 18 -34 15 -19 -5 13 -16 12 -17 -3 -5 -13 10 -17 10
-20 0 -3 -8 -7 -6 -11 6 -5 11 -3 15 5 10 7 -5 8 -2 3 7 -5 8 -5 11 0 7 13
-12 45 11 39 27 -4 8 -11 12 -16 9 -6 -4 -5 -10 3 -15 11 -7 11 -9 2 -10 -28
-3 -32 -4 -39 -11 -4 -4 -13 -3 -20 3 -13 10 -32 -6 -20 -18 3 -4 6 -1 6 6 0
7 5 9 11 5 8 -4 7 -9 -2 -15 -8 -4 -19 -3 -26 3 -9 7 -17 7 -28 -2 -8 -7 -15
-9 -15 -5 0 4 -6 2 -14 -4 -10 -8 -16 -9 -21 -1 -3 6 -11 7 -17 4 -7 -4 -8 -2
-4 4 10 16 -7 15 -23 0 -8 -8 -11 -8 -8 -2 4 7 0 17 -8 24 -10 8 -12 17 -6 29
6 10 5 24 -1 35 -9 17 -8 18 8 12 15 -5 16 -4 7 5 -17 17 -35 2 -23 -21 7 -13
7 -21 0 -25 -6 -4 -10 -3 -9 2 4 22 -2 34 -13 26 -7 -4 -5 5 5 21 18 27 18 27
-2 17 -31 -17 -36 -13 -10 9 13 10 18 19 12 20 -7 0 -13 -4 -13 -10 0 -5 -5
-10 -10 -10 -7 0 -7 7 0 23 l11 22 -18 -21 c-18 -21 -69 -41 -57 -23 3 5 14 9
25 9 11 0 17 5 14 10 -4 6 -14 8 -24 5 -9 -3 -26 1 -36 9 -15 11 -23 12 -35 3
-9 -7 -7 -2 3 10 11 13 26 19 40 17 21 -4 21 -4 -1 6 -13 5 -28 8 -33 5 -5 -4
-6 1 -3 9 3 9 10 13 15 10 5 -3 9 -1 9 4 0 6 -7 12 -15 15 -8 4 -12 15 -10 27
3 13 0 18 -7 14 -8 -5 -9 -1 -5 12 7 18 6 18 -7 1 -12 -15 -14 -15 -19 -2 -4
9 -13 12 -24 8 -16 -6 -17 -5 -3 12 8 10 10 16 5 13 -14 -9 -40 8 -40 24 0 7
-6 13 -14 13 -8 0 -16 6 -19 14 -3 9 0 11 8 6 8 -5 11 -4 7 2 -4 6 -19 8 -34
6 l-28 -4 25 15 c14 8 19 15 13 16 -7 0 -13 5 -13 11 0 5 5 7 12 3 7 -4 8 -3
4 5 -6 9 -11 9 -22 0 -11 -9 -14 -9 -14 1 0 8 -3 10 -7 6 -5 -4 1 -14 11 -22
11 -8 15 -14 9 -14 -7 0 -15 5 -19 11 -3 6 -17 9 -30 6 -13 -2 -21 -1 -19 3 3
4 -2 13 -9 19 -10 8 -16 9 -21 1 -3 -5 -1 -10 6 -10 7 0 10 -3 6 -6 -3 -3 -11
-3 -17 1 -8 5 -8 11 1 21 13 16 -2 19 -18 3 -8 -8 -13 -7 -18 2 -5 7 -4 10 2
6 6 -4 16 0 23 8 11 14 15 13 27 -5 9 -12 21 -19 30 -16 8 3 11 1 8 -4 -3 -6
-1 -10 4 -10 6 0 11 7 11 15 0 9 -6 15 -13 14 -28 -3 -39 2 -33 16 3 8 0 14
-7 12 -7 -1 -11 7 -9 18 2 11 -1 16 -5 10 -15 -19 -32 -14 -44 15 -7 15 -17
26 -21 24 -5 -3 -11 2 -14 10 -3 9 -10 13 -15 10 -5 -3 -6 3 -2 12 4 12 3 15
-5 10 -7 -4 -12 -14 -12 -22 0 -8 -5 -14 -10 -14 -7 0 -7 6 0 19 15 30 12 43
-9 36 -13 -4 -20 0 -24 15 -4 14 0 20 11 20 11 0 6 6 -12 15 -15 8 -32 12 -37
9 -5 -3 -12 2 -15 10 -3 9 -14 16 -23 17 -12 0 -12 2 4 9 19 8 19 9 -2 9 -13
1 -23 6 -23 11 0 13 6 13 31 -1 11 -5 17 -14 14 -20 -4 -5 -1 -9 5 -9 6 0 8
-5 4 -12 -4 -7 -3 -8 4 -4 6 4 8 14 5 23 -5 12 -3 14 8 8 12 -8 12 -6 0 8 -7
9 -17 15 -21 12 -5 -3 -16 2 -24 11 -9 8 -16 12 -16 8 0 -4 -10 1 -22 12 -12
10 -18 13 -14 7 4 -8 2 -13 -6 -13 -8 0 -6 -5 5 -11 9 -5 17 -15 17 -22 0 -8
-4 -6 -11 3 -9 12 -10 10 -5 -9 3 -15 1 -20 -5 -14 -5 5 -10 22 -11 38 -2 30
-23 55 -43 51 -5 -2 -7 -1 -2 1 4 3 7 9 7 14 0 6 -5 7 -10 4 -6 -4 -9 -3 -8 2
5 16 -23 52 -36 47 -8 -3 -17 0 -21 5 -3 6 -10 9 -14 7 -3 -3 -7 3 -8 12 -1 9
-4 27 -8 40 -6 19 -5 21 11 16 11 -4 16 -4 13 0 -6 6 -42 17 -66 18 -7 1 -12
4 -11 7 3 26 -3 33 -17 21 -12 -10 -16 -9 -21 4 -4 9 -4 20 0 23 3 4 6 -2 6
-12 0 -24 13 -11 17 18 2 12 0 18 -4 12 -5 -5 -15 -11 -23 -13 -24 -6 -41 -24
-36 -38 3 -8 0 -11 -10 -7 -8 3 -14 -1 -15 -11 -1 -9 -2 -25 -3 -35 0 -11 -4
-22 -7 -25 -8 -8 -5 57 4 70 3 6 1 11 -6 11 -14 0 -17 -150 -4 -163 10 -10 9
-26 -1 -20 -4 2 -8 -4 -8 -14 0 -10 4 -16 8 -14 4 3 8 0 8 -6 0 -6 4 -9 9 -6
5 3 8 -2 7 -12 0 -9 5 -16 12 -14 8 1 11 -2 7 -8 -10 -16 -23 -12 -30 10 -3
11 -11 20 -18 20 -8 0 -8 -3 1 -12 15 -15 16 -32 1 -22 -8 4 -8 0 0 -15 7 -11
14 -21 17 -21 3 0 3 4 0 8 -3 5 1 9 9 9 11 0 12 -3 3 -14 -6 -8 -16 -12 -23
-9 -6 2 -12 -3 -12 -11 0 -9 7 -13 19 -10 10 3 21 0 25 -6 3 -7 3 -9 -2 -5 -4
4 -17 2 -28 -4 -20 -10 -20 -11 -2 -24 10 -7 22 -11 26 -8 5 3 9 0 9 -6 0 -6
-10 -9 -23 -6 -16 3 -23 -1 -23 -13 0 -10 6 -18 13 -18 7 0 10 4 7 9 -3 4 2 5
11 1 12 -4 13 -8 5 -13 -9 -6 -9 -9 1 -13 8 -3 3 -5 -11 -4 -25 2 -27 -3 -14
-37 5 -12 4 -17 -3 -13 -11 7 -11 -28 0 -39 10 -10 9 -26 -1 -20 -4 2 -7 -9
-7 -25 1 -29 21 -53 37 -43 4 3 8 0 8 -6 0 -6 -10 -9 -23 -6 -16 3 -23 -1 -23
-13 0 -10 6 -18 13 -18 7 0 10 4 7 9 -3 4 2 5 11 1 12 -4 13 -8 5 -13 -9 -6
-9 -9 1 -13 8 -3 3 -5 -11 -4 -25 2 -27 -3 -14 -37 5 -12 4 -17 -3 -13 -11 7
-11 -28 0 -39 10 -10 9 -26 -1 -20 -4 2 -7 -9 -7 -25 1 -29 21 -53 37 -43 4 3
8 0 8 -6 0 -6 -10 -9 -23 -6 -16 3 -23 -1 -23 -13 0 -10 6 -18 13 -18 7 0 10
4 7 9 -3 4 2 5 11 1 12 -4 13 -8 5 -13 -9 -6 -9 -9 1 -13 8 -3 3 -5 -11 -4
-25 2 -27 -3 -14 -37 5 -12 4 -17 -3 -13 -11 7 -11 -28 0 -39 10 -10 9 -26 -1
-20 -4 2 -7 -9 -7 -25 1 -29 21 -53 37 -43 4 3 8 0 8 -6 0 -6 -10 -9 -23 -6
-16 3 -23 -1 -23 -13 0 -10 6 -18 13 -18 7 0 10 4 7 9 -3 4 2 5 11 1 12 -4 13
-8 5 -13 -9 -6 -9 -9 1 -13 8 -3 3 -5 -11 -4 -25 2 -27 -3 -14 -37 5 -12 4
-17 -3 -13 -11 7 -11 -28 0 -39 10 -10 9 -26 -1 -20 -4 2 -7 -9 -7 -25 1 -29
21 -53 37 -43 4 3 8 0 8 -6 0 -6 -10 -9 -23 -6 -16 3 -23 -1 -23 -13 0 -10 6
-18 13 -18 7 0 10 4 7 9 -3 4 2 5 11 1 12 -4 13 -8 5 -13 -9 -6 -9 -9 1 -13 8
-3 3 -5 -11 -4 -25 2 -27 -3 -14 -37 5 -12 4 -17 -3 -13 -11 7 -11 -28 0 -39
10 -10 9 -26 -1 -20 -4 2 -7 -9 -7 -25 1 -29 21 -53 37 -43 4 3 8 0 8 -6 0 -6
-10 -9 -23 -6 -16 3 -23 -1 -23 -13 0 -10 6 -18 13 -18 7 0 10 4 7 9 -3 4 2 5
11 1 12 -4 13 -8 5 -13 -9 -6 -9 -9 1 -13 8 -3 3 -5 -11 -4 -25 2 -27 -3 -14
-37 5 -12 4 -17 -3 -13 -11 7 -11 -28 0 -39 10 -10 9 -26 -1 -20 -4 2 -7 -9
-7 -25 1 -29 21 -53 37 -43 4 3 8 0 8 -6 0 -6 -10 -9 -23 -6 -16 3 -23 -1 -23
-13 0 -10 6 -18 13 -18 7 0 10 4 7 9 -3 4 2 5 11 1 12 -4 13 -8 5 -13 -9 -6
-9 -9 1 -13 8 -3 3 -5 -11 -4 -25 2 -27 -3 -14 -37 5 -12 4 -17 -3 -13 -11 7
-11 -22 1 -41 4 -7 12 -9 18 -6 7 4 8 2 4 -4 -4 -7 -2 -12 5 -12 7 0 10 -3 7
-6 -4 -3 -15 -1 -25 4 -17 9 -18 6 -17 -41 1 -29 2 -58 3 -64 2 -18 18 -16 18
2 0 8 -4 12 -8 9 -4 -2 -7 5 -6 16 2 23 17 27 17 4 0 -9 5 -12 12 -8 7 4 10 3
5 -1 -4 -5 0 -16 9 -26 12 -13 12 -19 3 -25 -7 -4 -10 -3 -5 4 10 17 -10 23
-24 7 -7 -8 -11 -15 -9 -16 2 -1 21 -2 42 -4 24 -2 35 0 31 7 -5 7 -2 8 7 2
19 -12 72 -12 81 1 5 6 8 6 8 -2 0 -7 7 -13 16 -13 9 0 12 5 8 13 -6 9 -4 9 7
1 16 -13 57 -13 78 0 8 5 12 5 8 0 -3 -5 50 -10 124 -11 97 -1 127 2 122 10
-4 8 -1 7 9 -1 22 -18 114 -12 110 6 -1 8 2 11 8 7 6 -3 8 -11 5 -16 -8 -12
208 -7 217 6 5 6 8 5 8 -2 0 -7 7 -13 16 -13 9 0 12 5 8 12 -5 7 -3 8 7 2 21
-13 62 -13 78 0 8 6 12 6 9 1 -4 -6 40 -11 123 -12 97 -1 127 2 122 10 -5 9
-3 9 8 0 22 -18 235 -13 231 5 -1 8 2 11 8 7 6 -3 8 -10 5 -14 -2 -5 27 -8 65
-8 41 1 66 5 63 11 -4 5 -1 6 8 0 21 -13 62 -13 78 0 11 8 13 8 8 0 -8 -14 90
-13 112 0 9 6 12 5 8 0 -3 -6 22 -10 63 -11 48 0 67 3 63 11 -4 7 -1 6 8 -1
22 -18 235 -13 231 5 -1 8 2 11 8 7 6 -3 8 -10 5 -14 -2 -5 27 -8 65 -8 41 1
66 5 63 11 -4 5 -1 6 8 0 19 -12 72 -12 81 1 5 6 8 6 8 -2 0 -7 7 -13 16 -13
9 0 12 5 8 12 -5 7 -3 8 7 2 8 -5 33 -9 56 -9 l41 0 0 1232 c0 1199 0 1232
-18 1211 -15 -19 -21 -21 -31 -10 -11 10 -11 14 0 25 10 10 11 9 6 -5 -11 -28
9 -21 22 7 8 19 8 23 0 18 -22 -14 -49 -14 -41 -1 6 10 4 11 -7 1 -14 -14 -33
-18 -25 -5 2 4 -5 9 -17 9 -15 2 -18 0 -9 -6 8 -5 13 -11 13 -15 -3 -24 1 -27
19 -11 11 10 20 14 20 9 0 -5 -9 -15 -20 -22 -18 -11 -22 -9 -39 19 -12 20
-21 26 -24 17 -4 -10 -8 -10 -16 2 -6 8 -11 10 -11 5z m37 -37 c-3 -8 -6 -5
-6 6 -1 11 2 17 5 13 3 -3 4 -12 1 -19z m-76 -35 c13 -16 12 -17 -3 -4 -10 7
-18 15 -18 17 0 8 8 3 21 -13z m-11 -94 c0 -4 -7 -6 -15 -3 -8 4 -15 10 -15
15 0 4 7 6 15 3 8 -4 15 -10 15 -15z m-7 -75 c-16 -12 -17 -13 -1 -14 9 0 20
-4 23 -10 3 -6 -1 -7 -10 -4 -11 5 -14 2 -9 -12 5 -18 5 -18 -6 -1 -24 37 -20
70 6 60 12 -5 12 -7 -3 -19z m-133 -114 c0 -5 -5 -10 -11 -10 -5 0 -7 5 -4 10
3 6 8 10 11 10 2 0 4 -4 4 -10z m-32 -68 c-9 -2 -15 -9 -12 -16 3 -8 -2 -16
-11 -20 -9 -3 -13 -11 -9 -17 4 -8 0 -8 -15 0 -20 11 -20 12 12 40 17 16 36
26 42 23 5 -4 2 -8 -7 -10z m-2021 -24 c-3 -8 -6 -5 -6 6 -1 11 2 17 5 13 3
-3 4 -12 1 -19z m-144 -15 c-6 -2 -9 -13 -6 -23 3 -11 1 -20 -3 -20 -5 0 -9
13 -9 29 -1 21 3 27 14 23 9 -3 10 -7 4 -9z m2093 -29 c2 -12 -1 -13 -11 -4
-10 8 -16 7 -23 -6 -6 -11 -11 -13 -16 -5 -4 6 -2 11 4 11 6 0 8 5 4 12 -4 6
-3 8 4 4 6 -3 14 -1 17 5 8 12 18 5 21 -17z m-1911 6 c3 -6 -1 -7 -9 -4 -18 7
-21 14 -7 14 6 0 13 -4 16 -10z m-168 -35 c0 -8 -4 -12 -9 -9 -5 3 -6 10 -3
15 9 13 12 11 12 -6z m3 -31 c0 -2 -7 -4 -15 -4 -8 0 -15 4 -15 10 0 5 7 7 15
4 8 -4 15 -8 15 -10z m258 -29 c-3 -3 -9 2 -12 12 -6 14 -5 15 5 6 7 -7 10
-15 7 -18z m1736 -12 c-9 -7 -21 -10 -26 -7 -14 9 -1 20 22 20 20 0 20 -1 4
-13z m-87 -38 c0 -8 -4 -12 -9 -9 -4 3 -8 0 -8 -5 0 -6 -5 -11 -12 -11 -6 0
-3 9 7 20 22 24 22 24 22 5z m-1506 -58 c-13 -13 -26 -3 -16 12 3 6 11 8 17 5
6 -4 6 -10 -1 -17z m-408 -14 c-7 -2 -19 -2 -25 0 -7 3 -2 5 12 5 14 0 19 -2
13 -5z m421 -18 c3 -8 1 -15 -4 -15 -6 0 -10 7 -10 15 0 8 2 15 4 15 2 0 6 -7
10 -15z m1437 -4 c-6 -10 -7 -22 -3 -26 4 -5 2 -5 -5 -2 -6 4 -19 0 -27 -9
-18 -18 -21 -11 -5 17 5 11 14 17 18 14 5 -3 11 2 15 10 3 8 8 15 11 15 3 0 1
-8 -4 -19z m-1407 -16 c-4 -8 -11 -15 -16 -15 -6 0 -5 6 2 15 7 8 14 15 16 15
2 0 1 -7 -2 -15z m1431 5 c3 -5 1 -10 -4 -10 -6 0 -11 5 -11 10 0 6 2 10 4 10
3 0 8 -4 11 -10z m-85 -21 c0 -5 -5 -7 -11 -3 -8 4 -9 -1 -5 -17 6 -20 5 -21
-4 -6 -11 18 -6 37 11 37 5 0 9 -5 9 -11z m-1790 -46 c12 10 12 9 2 -4 -6 -9
-8 -20 -4 -24 4 -5 1 -5 -5 -1 -7 4 -18 17 -23 29 -10 20 -10 20 3 5 11 -14
16 -15 27 -5z m1754 -25 c-3 -4 -12 -4 -22 -1 -15 6 -15 5 -3 -10 7 -9 9 -17
3 -17 -11 0 -23 25 -15 33 8 8 42 4 37 -5z m-1774 -23 c0 -8 -4 -15 -10 -15
-5 0 -7 7 -4 15 4 8 8 15 10 15 2 0 4 -7 4 -15z m584 6 c3 -5 -1 -11 -9 -15
-8 -3 -17 0 -21 6 -4 7 -3 8 4 4 7 -4 12 -2 12 3 0 13 7 14 14 2z m1103 -45
c-3 -8 -1 -17 6 -19 7 -2 -1 -4 -17 -4 -15 0 -32 -7 -37 -14 -5 -8 -9 -10 -9
-6 0 4 -6 2 -14 -5 -8 -7 -11 -17 -8 -22 3 -5 0 -6 -7 -2 -16 10 10 40 50 56
16 7 29 16 29 21 0 5 3 9 6 9 3 0 4 -6 1 -14z m-1679 -19 c8 -10 6 -13 -7 -13
-11 0 -17 6 -14 13 3 7 6 13 8 13 1 0 7 -6 13 -13z m5 -34 c-7 -2 -19 -2 -25
0 -7 3 -2 5 12 5 14 0 19 -2 13 -5z m732 -46 c4 5 5 3 1 -4 -3 -6 2 -18 11
-25 20 -15 28 -38 13 -38 -5 0 -10 7 -10 17 0 14 -2 14 -22 -3 -13 -10 -17
-12 -10 -4 17 19 15 41 -3 34 -8 -4 -12 -11 -8 -18 3 -6 2 -8 -2 -3 -5 4 -9
21 -10 37 -1 27 0 29 15 15 9 -8 20 -12 25 -8z m-725 -54 c12 10 12 9 2 -4 -6
-9 -8 -20 -4 -24 4 -5 1 -5 -5 -1 -7 4 -18 17 -23 29 -10 20 -10 20 3 5 11
-14 16 -15 27 -5z m788 -15 c-2 -7 5 -13 14 -13 10 0 17 -3 15 -6 -1 -3 4 -13
11 -22 9 -11 10 -17 2 -22 -6 -4 -14 -4 -17 -1 -4 3 -1 6 6 6 7 0 9 5 6 10 -4
6 -11 7 -17 4 -7 -5 -8 -2 -3 6 6 10 4 12 -8 7 -10 -4 -16 -2 -14 6 1 7 -4 11
-12 9 -12 -3 -12 0 -1 12 15 19 21 20 18 4z m-53 -8 c3 -5 1 -10 -4 -10 -6 0
-11 5 -11 10 0 6 2 10 4 10 3 0 8 -4 11 -10z m-755 -25 c0 -8 -4 -15 -10 -15
-5 0 -7 7 -4 15 4 8 8 15 10 15 2 0 4 -7 4 -15z m8 -58 c8 -10 6 -13 -7 -13
-11 0 -17 6 -14 13 3 7 6 13 8 13 1 0 7 -6 13 -13z m1422 -7 c0 -5 -5 -10 -11
-10 -5 0 -7 5 -4 10 3 6 8 10 11 10 2 0 4 -4 4 -10z m-1417 -27 c-7 -2 -19 -2
-25 0 -7 3 -2 5 12 5 14 0 19 -2 13 -5z m1336 -56 c0 -9 -2 -9 -6 1 -2 6 -9
12 -14 12 -4 0 -6 -7 -3 -15 4 -8 2 -15 -3 -15 -5 0 -9 11 -9 24 0 21 3 23 18
15 10 -5 18 -15 17 -22z m-1329 -44 c12 10 12 9 2 -4 -6 -9 -8 -20 -4 -24 4
-5 1 -5 -5 -1 -7 4 -18 17 -23 29 -10 20 -10 20 3 5 11 -14 16 -15 27 -5z
m975 -23 c3 -5 1 -10 -4 -10 -6 0 -11 5 -11 10 0 6 2 10 4 10 3 0 8 -4 11 -10z
m-995 -25 c0 -8 -4 -15 -10 -15 -5 0 -7 7 -4 15 4 8 8 15 10 15 2 0 4 -7 4
-15z m8 -58 c8 -10 6 -13 -7 -13 -11 0 -17 6 -14 13 3 7 6 13 8 13 1 0 7 -6
13 -13z m5 -34 c-7 -2 -19 -2 -25 0 -7 3 -2 5 12 5 14 0 19 -2 13 -5z m7 -100
c12 10 12 9 2 -4 -6 -9 -8 -20 -4 -24 4 -5 1 -5 -5 -1 -7 4 -18 17 -23 29 -10
20 -10 20 3 5 11 -14 16 -15 27 -5z m-20 -48 c0 -8 -4 -15 -10 -15 -5 0 -7 7
-4 15 4 8 8 15 10 15 2 0 4 -7 4 -15z m8 -58 c8 -10 6 -13 -7 -13 -11 0 -17 6
-14 13 3 7 6 13 8 13 1 0 7 -6 13 -13z m5 -34 c-7 -2 -19 -2 -25 0 -7 3 -2 5
12 5 14 0 19 -2 13 -5z m7 -100 c12 10 12 9 2 -4 -6 -9 -8 -20 -4 -24 4 -5 1
-5 -5 -1 -7 4 -18 17 -23 29 -10 20 -10 20 3 5 11 -14 16 -15 27 -5z m-20 -48
c0 -8 -4 -15 -10 -15 -5 0 -7 7 -4 15 4 8 8 15 10 15 2 0 4 -7 4 -15z m8 -58
c8 -10 6 -13 -7 -13 -11 0 -17 6 -14 13 3 7 6 13 8 13 1 0 7 -6 13 -13z m5
-34 c-7 -2 -19 -2 -25 0 -7 3 -2 5 12 5 14 0 19 -2 13 -5z m7 -100 c12 10 12
9 2 -4 -6 -9 -8 -20 -4 -24 4 -5 1 -5 -5 -1 -7 4 -18 17 -23 29 -10 20 -10 20
3 5 11 -14 16 -15 27 -5z m-20 -48 c0 -8 -4 -15 -10 -15 -5 0 -7 7 -4 15 4 8
8 15 10 15 2 0 4 -7 4 -15z m8 -58 c8 -10 6 -13 -7 -13 -11 0 -17 6 -14 13 3
7 6 13 8 13 1 0 7 -6 13 -13z m5 -34 c-7 -2 -19 -2 -25 0 -7 3 -2 5 12 5 14 0
19 -2 13 -5z m-15 -108 c-3 -3 -9 2 -12 12 -6 14 -5 15 5 6 7 -7 10 -15 7 -18z
m15 -22 c-7 -2 -13 -11 -13 -19 0 -8 -5 -14 -10 -14 -7 0 -7 6 0 20 6 11 16
20 23 19 9 0 9 -2 0 -6z m-5 -92 c11 -7 11 -9 -1 -14 -16 -6 -27 0 -27 15 0
10 11 10 28 -1z m567 -109 c-3 -3 -11 0 -18 7 -9 10 -8 11 6 5 10 -3 15 -9 12
-12z m39 10 c3 -5 -1 -9 -9 -9 -8 0 -12 4 -9 9 3 4 7 8 9 8 2 0 6 -4 9 -8z
m693 -8 c-3 -3 -12 -4 -19 -1 -8 3 -5 6 6 6 11 1 17 -2 13 -5z m720 0 c-3 -3
-12 -4 -19 -1 -8 3 -5 6 6 6 11 1 17 -2 13 -5z"/>
<path d="M2159 2033 c-13 -16 -12 -17 4 -4 9 7 17 15 17 17 0 8 -8 3 -21 -13z"/>
<path d="M2243 2183 c18 -21 47 -21 47 -1 0 5 -4 7 -9 4 -5 -4 -12 0 -14 6 -4
10 -6 9 -6 -1 -1 -11 -4 -11 -18 0 -16 12 -16 11 0 -8z"/>
<path d="M56 2178 c5 -7 -18 -12 -39 -9 -13 2 -7 -17 7 -22 8 -3 23 5 35 17
16 17 18 23 7 23 -8 0 -13 -4 -10 -9z"/>
<path d="M127 2178 c-5 -15 21 -58 34 -58 5 0 9 5 9 11 0 5 -5 7 -11 3 -7 -4
-10 -1 -7 7 3 8 12 13 19 11 12 -3 12 -1 0 10 -11 10 -14 10 -18 0 -3 -6 -9
-10 -13 -7 -5 3 -7 12 -3 20 3 8 3 15 0 15 -3 0 -7 -6 -10 -12z"/>
<path d="M210 2041 c0 -11 26 -22 34 -14 3 4 6 11 6 17 0 6 -5 4 -10 -4 -6
-10 -10 -11 -10 -2 0 6 -4 12 -10 12 -5 0 -10 -4 -10 -9z"/>
<path d="M265 2025 c2 -26 45 -85 59 -84 6 0 5 3 -1 6 -7 2 -13 9 -13 14 0 6
4 8 8 5 4 -2 8 4 8 15 0 18 -2 18 -12 5 -15 -21 -26 -8 -13 16 6 11 8 22 6 25
-3 2 -8 -5 -12 -18 -6 -17 -9 -19 -16 -8 -11 18 -12 32 -1 25 5 -3 9 1 9 8 0
7 -6 13 -13 13 -6 0 -11 -10 -9 -22z"/>
<path d="M2045 2020 c-3 -6 1 -7 9 -4 18 7 21 14 7 14 -6 0 -13 -4 -16 -10z"/>
<path d="M455 1840 c3 -5 8 -10 11 -10 2 0 4 5 4 10 0 6 -5 10 -11 10 -5 0 -7
-4 -4 -10z"/>
<path d="M548 1753 c6 -2 12 -9 12 -14 0 -6 -4 -7 -10 -4 -6 4 -7 -1 -3 -11 5
-15 7 -15 15 0 10 18 3 36 -15 35 -9 0 -9 -2 1 -6z"/>
<path d="M577 1723 c-7 -12 11 -53 23 -53 5 0 10 5 10 11 0 5 -4 7 -10 4 -9
-5 -15 15 -11 38 0 4 -1 7 -3 7 -3 0 -7 -3 -9 -7z"/>
<path d="M1586 1522 c-3 -5 1 -9 9 -9 8 0 12 4 9 9 -3 4 -7 8 -9 8 -2 0 -6 -4
-9 -8z"/>
<path d="M1517 1443 c-4 -3 -7 -11 -7 -17 0 -6 5 -5 12 2 6 6 9 14 7 17 -3 3
-9 2 -12 -2z"/>
<path d="M900 1326 c0 -3 9 -10 19 -15 14 -8 22 -7 32 7 11 14 11 15 -1 5 -9
-8 -19 -9 -32 -2 -10 5 -18 7 -18 5z"/>
<path d="M1401 1314 c0 -11 3 -14 6 -6 3 7 2 16 -1 19 -3 4 -6 -2 -5 -13z"/>
<path d="M1056 1182 c-3 -5 1 -15 9 -22 16 -14 20 -3 6 19 -5 8 -11 9 -15 3z"/>
<path d="M1157 1162 c6 -14 4 -15 -8 -5 -12 10 -18 10 -27 1 -9 -9 -12 -9 -12
0 0 7 -5 12 -12 12 -6 0 -3 -9 7 -20 12 -14 22 -17 30 -10 6 5 14 8 17 5 3 -3
10 1 17 9 9 11 8 15 -3 19 -11 4 -13 1 -9 -11z"/>
</g>
</svg>
